<?xml version="1.0" encoding="UTF-8"?>
<svg width="81px" height="80px" viewBox="0 0 81 80" version="1.1" xmlns="http://www.w3.org/2000/svg" xmlns:xlink="http://www.w3.org/1999/xlink">
    <title>icon_circle_plan</title>
    <g id="fadoua.dev/landing" stroke="none" stroke-width="1" fill="none" fill-rule="evenodd">
        <g id="Landing" transform="translate(-150.000000, -995.000000)">
            <g id="Skills" transform="translate(150.000000, 993.000000)">
                <g id="icon_circle_plan" transform="translate(0.704132, 2.000000)">
                    <circle id="background" fill="#2B3137" cx="40" cy="40" r="40"></circle>
                    <path d="M51.0949513,38.5243478 L51.0949513,47.2147826 C51.0949513,47.6965217 50.7113062,48.0869565 50.2289352,48.0869565 C49.7500283,48.0869565 49.3629191,47.6904348 49.3629191,47.2147826 L49.3629191,38.5243478 C49.3629191,38.0426087 49.7465642,37.6521739 50.2289352,37.6521739 C50.7078421,37.6521739 51.0949513,38.0486957 51.0949513,38.5243478 L51.0949513,38.5243478 Z M54.5590158,40.2565217 L54.5590158,47.2217391 C54.5590158,47.7 54.1753707,48.0869565 53.6929997,48.0869565 C53.2140928,48.0869565 52.8269836,47.6904348 52.8269836,47.2217391 L52.8269836,40.2565217 C52.8269836,39.7782609 53.2106287,39.3913043 53.6929997,39.3913043 C54.1719066,39.3913043 54.5590158,39.7878261 54.5590158,40.2565217 L54.5590158,40.2565217 Z M47.6308868,40.2565217 L47.6308868,47.2217391 C47.6308868,47.7 47.2472417,48.0869565 46.7648707,48.0869565 C46.2859638,48.0869565 45.8988546,47.6904348 45.8988546,47.2217391 L45.8988546,40.2565217 C45.8988546,39.7782609 46.2824997,39.3913043 46.7648707,39.3913043 C47.2437776,39.3913043 47.6308868,39.7878261 47.6308868,40.2565217 L47.6308868,40.2565217 Z M44.1668223,42.8721739 L44.1668223,47.2147826 C44.1668223,47.6965217 43.7831772,48.0869565 43.3008062,48.0869565 C42.8218993,48.0869565 42.4347901,47.7069565 42.4347901,47.2147826 L42.4347901,42.8721739 C42.4347901,42.3904348 42.8184352,42 43.3008062,42 C43.7797131,42 44.1668223,42.3808696 44.1668223,42.8721739 L44.1668223,42.8721739 Z M36.2817455,42.96 C36.2782814,42.9791304 36.2765494,42.9991304 36.2722193,43.0173913 C36.2124642,43.3182609 36.1241306,43.6095652 36.0150125,43.8913043 C36.0037543,43.9191304 35.9950942,43.9486957 35.983836,43.9773913 C35.8721199,44.2513043 35.7344233,44.513913 35.5768084,44.766087 C35.5594881,44.793913 35.5421677,44.8243478 35.5248474,44.8521739 C35.5092591,44.8756522 35.4884747,44.893913 35.4746185,44.9165217 C34.7757435,44.2478261 34.6752856,44.1513043 34.2414115,43.7347826 C34.0699403,43.5713043 34.0699403,43.5713043 34.0015251,43.5052174 C33.9798747,43.4843478 33.9798747,43.4843478 33.9712145,43.4765217 C33.9694825,43.473913 33.9694825,43.473913 33.9677504,43.4721739 L33.9668844,43.4713043 C33.9660184,43.4704348 33.9660184,43.4704348 33.9625543,43.4686957 C33.9538942,43.46 33.9538942,43.46 33.9331098,43.4391304 C33.8646945,43.373913 33.8646945,43.373913 33.6932233,43.2095652 C33.1857379,42.7234783 33.1346429,42.673913 32.0425966,41.6278261 L32.0425966,38.9591304 L32.0425966,38.9565217 L32.0425966,38.9086957 L32.0425966,38.5765217 L32.0425966,36.8608696 C34.4986183,37.2747826 36.3726772,39.4147826 36.3726772,42 C36.3726772,42.326087 36.3389026,42.6469565 36.2817455,42.96 L36.2817455,42.96 Z M31.1765805,47.2173913 C28.307469,47.2173913 25.9804837,44.8817391 25.9804837,42 C25.9804837,39.4147826 27.8545426,37.2747826 30.3105643,36.8608696 L30.3105643,38.5765217 L30.3105643,38.9086957 L30.3105643,38.9565217 L30.3105643,38.9591304 L30.3105643,42 C30.3105643,42.2382609 30.4066921,42.4652174 30.5790293,42.6295652 C31.9499329,43.9417391 31.9499329,43.9417391 32.4972551,44.4678261 C32.6687262,44.6313043 32.6687262,44.6313043 32.7371415,44.6982609 C32.7579259,44.7182609 32.7579259,44.7182609 32.7665861,44.726087 C32.7700501,44.7286957 32.7700501,44.7286957 32.7709161,44.7304348 L32.7717822,44.7304348 L32.7717822,44.7313043 C32.7735142,44.7321739 32.7735142,44.7321739 32.7752462,44.7347826 C32.7839064,44.7426087 32.7839064,44.7426087 32.8055568,44.7634783 C32.8739721,44.8286957 32.8739721,44.8286957 33.0454433,44.9930435 C33.4801834,45.4086957 33.5797752,45.5052174 34.2803822,46.1773913 C33.4143661,46.8278261 32.3422382,47.2173913 31.1765805,47.2173913 L31.1765805,47.2173913 Z M31.1765805,35.0434783 C29.1042039,35.0434783 27.2500634,35.9626087 25.9804837,37.4095652 C24.9057577,38.6356522 24.2484515,40.2391304 24.2484515,42 C24.2484515,43.7608696 24.9057577,45.3643478 25.9804837,46.5904348 C27.2500634,48.0373913 29.1042039,48.9565217 31.1765805,48.9565217 C33.138973,48.9565217 34.9065119,48.1347826 36.1665654,46.8182609 C36.1734935,46.8113043 36.1812876,46.8095652 36.1882158,46.8034783 C36.2471049,46.74 36.2999319,46.6721739 36.3570889,46.6078261 C36.4281022,46.526087 36.5008476,46.446087 36.5692629,46.3626087 C36.6420082,46.2730435 36.7078254,46.18 36.7745087,46.086087 C36.8368618,46.0008696 36.900081,45.9165217 36.9589701,45.8269565 C37.0230553,45.7295652 37.0810784,45.6278261 37.1408335,45.5278261 C37.1927945,45.4373913 37.2482195,45.3495652 37.2967164,45.2556522 C37.3521414,45.1521739 37.3997723,45.0452174 37.4491352,44.94 C37.4941681,44.8443478 37.540933,44.7495652 37.5807697,44.6513043 C37.6249365,44.5443478 37.6613092,44.4330435 37.7002799,44.3234783 C37.7357866,44.2217391 37.7747573,44.1226087 37.8050679,44.0191304 C37.8405745,43.9052174 37.866555,43.7869565 37.8951336,43.6695652 C37.920248,43.5678261 37.9488266,43.4695652 37.9696109,43.3652174 C37.9964574,43.2295652 38.0137778,43.0921739 38.0319641,42.9547826 C38.0440883,42.866087 38.0605426,42.7817391 38.0700688,42.6921739 C38.0925852,42.4634783 38.1047095,42.2330435 38.1047095,42 C38.1047095,38.1582609 35.0026397,35.0434783 31.1765805,35.0434783 L31.1765805,35.0434783 Z M30.3105643,26.3478261 C30.3105643,26.8286957 29.9234551,27.2173913 29.4445482,27.2173913 C28.9656413,27.2173913 28.5785321,26.8286957 28.5785321,26.3478261 C28.5785321,25.8669565 28.9656413,25.4782609 29.4445482,25.4782609 C29.9234551,25.4782609 30.3105643,25.8669565 30.3105643,26.3478261 L30.3105643,26.3478261 Z M27.712516,26.3478261 C27.712516,26.8286957 27.3254068,27.2173913 26.8464998,27.2173913 C26.3675929,27.2173913 25.9804837,26.8286957 25.9804837,26.3478261 C25.9804837,25.8669565 26.3675929,25.4782609 26.8464998,25.4782609 C27.3254068,25.4782609 27.712516,25.8669565 27.712516,26.3478261 L27.712516,26.3478261 Z M25.1144676,26.3478261 C25.1144676,26.8286957 24.7273584,27.2173913 24.2484515,27.2173913 C23.7695446,27.2173913 23.3824353,26.8286957 23.3824353,26.3478261 C23.3824353,25.8669565 23.7695446,25.4782609 24.2484515,25.4782609 C24.7273584,25.4782609 25.1144676,25.8669565 25.1144676,26.3478261 L25.1144676,26.3478261 Z M58.0230803,28.9565217 L34.640645,28.9565217 L32.0425966,28.9565217 L29.4445482,28.9565217 L24.2484515,28.9565217 L21.6504031,28.9565217 L21.6504031,24.6086957 L21.6504031,24.6069565 C21.6504031,24.1313043 22.0418424,23.7391304 22.5164192,23.7391304 L24.2484515,23.7391304 L29.4445482,23.7391304 L32.0425966,23.7391304 L34.640645,23.7391304 L57.1570642,23.7391304 C57.6359711,23.7391304 58.0230803,24.1269565 58.0230803,24.6069565 L58.0230803,24.6086957 L58.0230803,28.9565217 Z M58.0230803,55.0452174 C58.0230803,55.5208696 57.631641,55.9130435 57.1570642,55.9130435 L22.5164192,55.9130435 C22.0375123,55.9130435 21.6504031,55.5252174 21.6504031,55.0452174 L21.6504031,53.3043478 L21.6504031,35.0434783 L21.6504031,31.5652174 L21.6504031,30.6956522 L24.2484515,30.6956522 L25.9804837,30.6956522 L29.4445482,30.6956522 L32.0425966,30.6956522 L34.640645,30.6956522 L42.4347901,30.6956522 L58.0230803,30.6956522 L58.0230803,35.0434783 L58.0230803,52.4347826 L58.0230803,55.0452174 Z M57.1570642,22 L34.640645,22 L32.0425966,22 L29.4445482,22 L24.2484515,22 L22.5164192,22 C22.2115815,22 21.9223322,22.0626087 21.6504031,22.1608696 C20.6466904,22.5208696 19.9183709,23.4747826 19.9183709,24.6069565 L19.9183709,24.6086957 L19.9183709,30.6956522 L19.9183709,31.5652174 L19.9183709,35.0434783 L19.9183709,53.3043478 L19.9183709,55.0452174 C19.9183709,56.486087 21.0822965,57.6521739 22.5164192,57.6521739 L57.1570642,57.6521739 C58.5842588,57.6521739 59.7551126,56.4843478 59.7551126,55.0452174 L59.7551126,35.0434783 L59.7551126,24.6086957 L59.7551126,24.6069565 C59.7551126,23.166087 58.5911869,22 57.1570642,22 L57.1570642,22 Z" id="ANALYTICS" fill="#FFFFFF"></path>
                </g>
            </g>
        </g>
    </g>
</svg>