<?xml version="1.0" encoding="UTF-8"?>
<svg width="81px" height="80px" viewBox="0 0 81 80" version="1.1" xmlns="http://www.w3.org/2000/svg" xmlns:xlink="http://www.w3.org/1999/xlink">
    <title>icon_circle_deploy</title>
    <g id="fadoua.dev/landing" stroke="none" stroke-width="1" fill="none" fill-rule="evenodd">
        <g id="Landing" transform="translate(-1090.000000, -993.000000)">
            <g id="Skills" transform="translate(150.000000, 993.000000)">
                <g id="icon_circle_deploy" transform="translate(940.851236, 0.000000)">
                    <circle id="background" fill="#121E2E" cx="40" cy="40" r="40"></circle>
                    <path d="M30.9755113,37 L29.9795927,37 L29.9795927,38 L29.9795927,39 L30.9755113,39 L39.9387781,39 L40.9346967,39 L40.9346967,38 L40.9346967,37 L39.9387781,37 L30.9755113,37 Z M30.9755113,31 L29.9795927,31 L29.9795927,32 L29.9795927,33 L30.9755113,33 L45.9142894,33 L47.9061265,33 L48.902045,33 L48.902045,31 L47.9061265,31 L30.9755113,31 Z M52.8857192,38 L52.8857192,26 L48.902045,26 L30.9755113,26 L27.9877556,26 L26.9918371,26 L26.9918371,32 L26.9918371,38 L26.9918371,44 L26.9918371,54 L27.9877556,54 L33.9632669,54 L45.9142894,54 L52.8857192,54 L52.8857192,38 Z M52.8857192,56 L45.9142894,56 L33.9632669,56 L27.9877556,56 L26.9918371,56 L26.9918371,60 C26.9918371,61.1 27.8841801,62 28.9806864,62 L33.9632669,62 L45.9142894,62 L50.8978658,62 C51.9913843,62 52.8857192,61.102 52.8857192,60 L52.8857192,56 Z M26.9918371,24 L27.9877556,24 L30.9755113,24 L48.902045,24 L52.8857192,24 L52.8857192,20 C52.8857192,18.9 51.9933762,18 50.8978658,18 L48.902045,18 L30.9755113,18 L28.9806864,18 C27.8861719,18 26.9918371,18.899 26.9918371,20 L26.9918371,24 Z M54.8775563,20 L54.8775563,60 C54.8775563,62.206 53.0898825,64 50.8978658,64 L45.9142894,64 L33.9632669,64 L28.9806864,64 C26.784686,64 25,62.203 25,60 L25,44 L25,38 L25,32 L25,26 L25,20 C25,17.794 26.7876738,16 28.9806864,16 L30.9755113,16 L48.902045,16 L50.8978658,16 C53.0938662,16 54.8775563,17.797 54.8775563,20 L54.8775563,20 Z M39.9387781,58 C39.3890311,58 38.9428596,58.447 38.9428596,59 C38.9428596,59.553 39.3890311,60 39.9387781,60 C40.4895211,60 40.9346967,59.553 40.9346967,59 C40.9346967,58.447 40.4895211,58 39.9387781,58 L39.9387781,58 Z M35.955104,21 C35.955104,20.448 36.4012755,20 36.9510225,20 L42.9265338,20 C43.4772767,20 43.9224523,20.448 43.9224523,21 C43.9224523,21.552 43.4772767,22 42.9265338,22 L36.9510225,22 C36.4012755,22 35.955104,21.552 35.955104,21 L35.955104,21 Z" id="MOBILE" fill="#FFFFFF"></path>
                </g>
            </g>
        </g>
    </g>
</svg>