<?xml version="1.0" encoding="UTF-8"?>
<svg width="81px" height="80px" viewBox="0 0 81 80" version="1.1" xmlns="http://www.w3.org/2000/svg" xmlns:xlink="http://www.w3.org/1999/xlink">
    <title>icon_circle_design</title>
    <g id="fadoua.dev/landing" stroke="none" stroke-width="1" fill="none" fill-rule="evenodd">
        <g id="Landing" transform="translate(-456.000000, -995.000000)">
            <g id="Skills" transform="translate(150.000000, 993.000000)">
                <g id="icon_circle_design" transform="translate(306.451124, 2.000000)">
                    <circle id="background" fill="#121E2E" cx="40" cy="40" r="40"></circle>
                    <path d="M53.0563394,56.7220358 L56.5450381,53.2199774 L57.5918345,57.7731222 L53.0563394,56.7220358 Z M41.1848655,45.2772903 L39.864464,43.9514775 L35.9023258,39.9731017 L34.5819243,38.647289 L26.4083216,30.4401893 L30.369526,26.4618135 L38.5431287,34.6689131 L39.864464,35.9947258 L43.8256685,39.9731017 L45.14607,41.2989144 L55.4608895,51.656006 L51.4996851,55.6343818 L41.1848655,45.2772903 Z M28.0957088,55.7675257 L24.9665253,57.1139663 L22.7926253,54.9311573 L24.1345043,51.7872746 L34.5809905,41.2989144 L38.5431287,45.2772903 L28.0957088,55.7675257 Z M22.4405805,26.4561877 C22.081999,26.0951991 22.0829328,25.5007399 22.4461833,25.1350631 L25.0869863,22.4834376 C25.453972,22.1158856 26.0404021,22.114948 26.4027187,22.4778119 L29.0491246,25.1350631 L25.0869863,29.113439 L22.4405805,26.4561877 Z M50.9524748,24.8612744 L54.9146131,28.8387126 L45.14607,38.647289 L41.1848655,34.6679755 L50.9524748,24.8612744 Z M55.9063149,21.8758516 C55.9091163,21.8739763 55.9016459,21.8739763 55.9091163,21.8814774 L57.8822481,23.8626955 C57.887851,23.8683212 57.887851,23.8645707 57.887851,23.8655084 L55.2451804,26.5180715 L53.2645781,24.5293524 L55.9063149,21.8758516 Z M58.1026263,51.656006 L46.4674053,39.9731017 L54.2291996,32.1794981 L54.9566344,32.9108517 C55.3217524,33.2774661 55.3217524,33.8709876 54.9547667,34.2394773 L51.2905125,37.9178107 C50.9263283,38.2844251 50.9263283,38.8779466 51.2905125,39.2436234 C51.6556306,39.6102378 52.2467297,39.6102378 52.610914,39.2436234 L56.2751682,35.5662277 C57.3714563,34.4654468 57.3723901,32.6839445 56.2779696,31.5850389 L55.5496011,30.8536854 L56.2350146,30.1645253 L57.5554161,28.8387126 L56.5655819,27.8448218 L59.2082524,25.1913211 C59.94129,24.4534041 59.9338196,23.2710492 59.2026496,22.5359451 L57.2295178,20.554727 C56.4908774,19.8130595 55.314282,19.8186853 54.5859134,20.5500389 L51.9432428,23.2035396 L50.9524748,22.2087112 L49.6320733,23.534524 L49.6311395,23.534524 L49.6311395,23.5354616 L39.864464,33.3421627 L27.7231202,21.1519991 C26.6296336,20.0549688 24.8610053,20.0587193 23.7665848,21.1576249 L21.1257818,23.8092504 C20.0350966,24.9044055 20.0285599,26.6868454 21.120179,27.7820004 L23.7665848,30.4392517 L24.0187124,30.6924125 L25.0869863,31.7660021 L33.260589,39.9731017 L22.5591738,50.7183732 L20.5785716,55.3596554 L21.8989731,56.6854682 L19.9183709,58.6741873 L21.2387723,60 L23.2193746,58.0112809 L24.5407099,59.3370936 L29.1630489,57.3483745 L39.864464,46.603103 L50.1783498,56.9601946 L51.4987513,58.2860073 L58.2632409,59.8537293 C59.2605456,60.0843869 59.8955336,59.456173 59.6630159,58.4472801 L58.1026263,51.656006 Z" id="UX/UI" fill="#FFFFFF"></path>
                </g>
            </g>
        </g>
    </g>
</svg>