<?xml version="1.0" encoding="UTF-8"?>
<svg width="81px" height="80px" viewBox="0 0 81 80" version="1.1" xmlns="http://www.w3.org/2000/svg" xmlns:xlink="http://www.w3.org/1999/xlink">
    <title>icon_circle_develop</title>
    <g id="fadoua.dev/landing" stroke="none" stroke-width="1" fill="none" fill-rule="evenodd">
        <g id="Landing" transform="translate(-774.000000, -995.000000)">
            <g id="Skills" transform="translate(150.000000, 993.000000)">
                <g id="icon_circle_develop" transform="translate(624.952863, 2.000000)">
                    <ellipse id="background" fill="#121E2E" cx="40" cy="39.9979505" rx="40" ry="39.9979505"></ellipse>
                    <path d="M58.759194,56.993 C58.759194,57.548 58.3080429,58 57.7592918,58 L21.9141916,58 C21.3604609,58 20.9142894,57.552 20.9142894,56.993 L20.9142894,35 L20.9142894,31 L20.9142894,30 L23.902045,30 L29.8775563,30 L32.8653119,30 L35.8530675,30 L48.3618044,30 L58.759194,30 L58.759194,35 L58.759194,56.993 Z M21.9141916,22 L23.902045,22 L29.8775563,22 L32.8653119,22 L35.8530675,22 L57.7592918,22 C58.3100347,22 58.7542144,22.445 58.7581981,23 C58.7581981,23.002 58.759194,23.004 58.759194,23.007 L58.759194,28 L35.8530675,28 L32.8653119,28 L29.8775563,28 L23.902045,28 L20.9142894,28 L20.9142894,23.007 C20.9142894,23.004 20.9152853,23.002 20.9152853,23 C20.919269,22.449 21.3674323,22 21.9141916,22 L21.9141916,22 Z M57.7592918,20 C59.4095288,20 60.7460515,21.339 60.7500352,23 C60.7500352,23.002 60.7510311,23.005 60.7510311,23.007 L60.7510311,56.993 C60.7510311,58.654 59.4065411,60 57.7592918,60 L57.7592918,60 L21.9141916,60 C20.2619627,60 18.9224523,58.657 18.9224523,56.993 L18.9224523,56.993 L18.9234482,23 C18.926436,21.697 19.7610157,20.599 20.9142894,20.185 C21.2280037,20.072 21.5616364,20 21.9141916,20 L21.9141916,20 Z M41.8283796,34.1932 C41.6710245,34.3022 41.5325918,34.4432 41.4578979,34.6352 L41.3164775,35.0002 L37.9552524,43.6222 L34.9256682,51.3982 C34.7244926,51.9122 34.9774559,52.4922 35.490354,52.6932 C36.003252,52.8942 36.5808848,52.6402 36.7810644,52.1272 L37.9552524,49.1112 L41.8283796,39.1722 L43.3122982,35.3642 C43.3591064,35.2442 43.376037,35.1212 43.376037,35.0002 C43.376037,34.6002 43.1419962,34.2222 42.7486083,34.0682 C42.4279226,33.9422 42.092298,34.0102 41.8283796,34.1932 Z M31.2762243,37.2928 L29.8779546,38.6968 L26.3514071,42.2368 C25.9620029,42.6278 25.9620029,43.2608 26.3514071,43.6508 L29.8779546,47.1918 L31.2762243,48.5968 C31.6656284,48.9868 32.2950489,48.9868 32.6844531,48.5968 C33.0738572,48.2058 33.0738572,47.5718 32.6844531,47.1828 L29.8779546,44.3638 L28.4637503,42.9438 L29.8779546,41.5248 L32.6844531,38.7068 C33.0738572,38.3158 33.0738572,37.6838 32.6844531,37.2928 C32.2950489,36.9018 31.6656284,36.9018 31.2762243,37.2928 Z M47.0999756,37.2928 C46.7105715,37.6838 46.7105715,38.3158 47.0999756,38.7068 L48.3618044,39.9738 L51.3196825,42.9438 L48.3618044,45.9158 L47.0999756,47.1828 C46.7105715,47.5718 46.7105715,48.2058 47.0999756,48.5968 C47.4455594,48.9428 47.9733962,48.9648 48.3618044,48.6938 C48.4096085,48.6608 48.464384,48.6408 48.5082044,48.5968 L53.4330216,43.6508 C53.8224258,43.2608 53.8224258,42.6278 53.4330216,42.2368 L48.5082044,37.2928 C48.464384,37.2498 48.4096085,37.2288 48.3618044,37.1948 C47.9733962,36.9258 47.4455594,36.9448 47.0999756,37.2928 Z M23.902045,23.9998 C23.3513021,23.9998 22.9061265,24.4468 22.9061265,24.9998 C22.9061265,25.5528 23.3513021,25.9998 23.902045,25.9998 C24.452788,25.9998 24.8979636,25.5528 24.8979636,24.9998 C24.8979636,24.4468 24.452788,23.9998 23.902045,23.9998 Z M26.8898006,23.9998 C26.3390577,23.9998 25.8938821,24.4468 25.8938821,24.9998 C25.8938821,25.5528 26.3390577,25.9998 26.8898006,25.9998 C27.4405436,25.9998 27.8857192,25.5528 27.8857192,24.9998 C27.8857192,24.4468 27.4405436,23.9998 26.8898006,23.9998 Z M29.8775563,23.9998 C29.3268133,23.9998 28.8816377,24.4468 28.8816377,24.9998 C28.8816377,25.5528 29.3268133,25.9998 29.8775563,25.9998 C30.4282992,25.9998 30.8734748,25.5528 30.8734748,24.9998 C30.8734748,24.4468 30.4282992,23.9998 29.8775563,23.9998 Z" id="FRONT-END" fill="#FFFFFF"></path>
                </g>
            </g>
        </g>
    </g>
</svg>