<?xml version="1.0" encoding="UTF-8"?>
<svg width="41px" height="40px" viewBox="0 0 41 40" version="1.1" xmlns="http://www.w3.org/2000/svg" xmlns:xlink="http://www.w3.org/1999/xlink">
    <title>client_icon</title>
    <g id="fadoua.dev/landing" stroke="none" stroke-width="1" fill="none" fill-rule="evenodd">
        <g id="Project" transform="translate(-647.000000, -1116.000000)">
            <g id="Project-Info" transform="translate(200.000000, 1113.000000)">
                <g id="client_icon" transform="translate(447.451124, 3.000000)">
                    <ellipse id="background" fill="#2B3137" cx="19.9183709" cy="20" rx="19.9183709" ry="20"></ellipse>
                    <g id="icons8-account" transform="translate(11.000000, 9.000000)" fill="#FFFFFF" fill-rule="nonzero">
                        <path d="M8.8,0 C5.77220435,0 3.3,2.47220655 3.3,5.5 C3.3,8.52779345 5.77220435,11 8.8,11 C11.8277957,11 14.3,8.52779345 14.3,5.5 C14.3,2.47220655 11.8277957,0 8.8,0 Z M8.8,1.65 C10.9360702,1.65 12.65,3.3639309 12.65,5.5 C12.65,7.6360691 10.9360702,9.35 8.8,9.35 C6.6639298,9.35 4.95,7.6360691 4.95,5.5 C4.95,3.3639309 6.6639298,1.65 8.8,1.65 Z M2.475,13.2 C1.11787445,13.2 0,14.3178745 0,15.675 L0,16.3345705 C0,17.9520451 1.02559232,19.4028857 2.5899412,20.4004884 C4.1542908,21.398091 6.29466255,22 8.8,22 C11.3053375,22 13.4457092,21.398091 15.0100588,20.4004884 C16.5744079,19.4028857 17.6,17.9520451 17.6,16.3345705 L17.6,15.675 C17.6,14.3178745 16.4821255,13.2 15.125,13.2 L2.475,13.2 Z M2.475,14.85 L15.125,14.85 C15.5905745,14.85 15.95,15.2094256 15.95,15.675 L15.95,16.3345705 C15.95,17.2503953 15.3601047,18.2203027 14.1227537,19.009375 C12.8854033,19.7984474 11.0378625,20.35 8.8,20.35 C6.56213745,20.35 4.7145967,19.7984474 3.4772463,19.009375 C2.23989535,18.2203027 1.65,17.2503953 1.65,16.3345705 L1.65,15.675 C1.65,15.2094256 2.00942555,14.85 2.475,14.85 Z" id="Shape"></path>
                    </g>
                </g>
            </g>
        </g>
    </g>
</svg>