<?xml version="1.0" encoding="UTF-8"?>
<svg width="41px" height="40px" viewBox="0 0 41 40" version="1.1" xmlns="http://www.w3.org/2000/svg" xmlns:xlink="http://www.w3.org/1999/xlink">
    <title>date_icon</title>
    <g id="fadoua.dev/landing" stroke="none" stroke-width="1" fill="none" fill-rule="evenodd">
        <g id="Project" transform="translate(-200.000000, -1113.000000)">
            <g id="Project-Info" transform="translate(200.000000, 1113.000000)">
                <g id="date_icon" transform="translate(0.704132, 0.000000)">
                    <circle id="background" fill="#2B3137" cx="20" cy="20" r="20"></circle>
                    <g id="icons8-calendar" transform="translate(9.000000, 9.000000)" fill="#FFFFFF" fill-rule="nonzero">
                        <path d="M3.97222222,0 C1.78937116,0 0,1.78937116 0,3.97222222 L0,18.0277778 C0,20.2106288 1.78937116,22 3.97222222,22 L18.0277778,22 C20.2106288,22 22,20.2106288 22,18.0277778 L22,3.97222222 C22,1.78937116 20.2106288,0 18.0277778,0 L3.97222222,0 Z M3.97222222,1.83333333 L18.0277778,1.83333333 C19.2194823,1.83333333 20.1666667,2.78051767 20.1666667,3.97222222 L20.1666667,4.88888889 L1.83333333,4.88888889 L1.83333333,3.97222222 C1.83333333,2.78051767 2.78051767,1.83333333 3.97222222,1.83333333 Z M1.83333333,6.72222222 L20.1666667,6.72222222 L20.1666667,18.0277778 C20.1666667,19.2194823 19.2194823,20.1666667 18.0277778,20.1666667 L3.97222222,20.1666667 C2.78051767,20.1666667 1.83333333,19.2194823 1.83333333,18.0277778 L1.83333333,6.72222222 Z M5.80555556,9.16666667 C4.96178719,9.16666667 4.27777778,9.85067608 4.27777778,10.6944444 C4.27777778,11.5382128 4.96178719,12.2222222 5.80555556,12.2222222 C6.64932392,12.2222222 7.33333333,11.5382128 7.33333333,10.6944444 C7.33333333,9.85067608 6.64932392,9.16666667 5.80555556,9.16666667 Z M11,9.16666667 C10.1562316,9.16666667 9.47222222,9.85067608 9.47222222,10.6944444 C9.47222222,11.5382128 10.1562316,12.2222222 11,12.2222222 C11.8437684,12.2222222 12.5277778,11.5382128 12.5277778,10.6944444 C12.5277778,9.85067608 11.8437684,9.16666667 11,9.16666667 L11,9.16666667 Z M16.1944444,9.16666667 C15.3506761,9.16666667 14.6666667,9.85067608 14.6666667,10.6944444 C14.6666667,11.5382128 15.3506761,12.2222222 16.1944444,12.2222222 C17.0382128,12.2222222 17.7222222,11.5382128 17.7222222,10.6944444 C17.7222222,9.85067608 17.0382128,9.16666667 16.1944444,9.16666667 Z M5.80555556,14.6666667 C4.96178719,14.6666667 4.27777778,15.3506761 4.27777778,16.1944444 C4.27777778,17.0382128 4.96178719,17.7222222 5.80555556,17.7222222 C6.64932392,17.7222222 7.33333333,17.0382128 7.33333333,16.1944444 C7.33333333,15.3506761 6.64932392,14.6666667 5.80555556,14.6666667 Z M11,14.6666667 C10.1562316,14.6666667 9.47222222,15.3506761 9.47222222,16.1944444 C9.47222222,17.0382128 10.1562316,17.7222222 11,17.7222222 C11.8437684,17.7222222 12.5277778,17.0382128 12.5277778,16.1944444 C12.5277778,15.3506761 11.8437684,14.6666667 11,14.6666667 L11,14.6666667 Z" id="Shape"></path>
                    </g>
                </g>
            </g>
        </g>
    </g>
</svg>