<?xml version="1.0" encoding="UTF-8"?>
<svg width="41px" height="40px" viewBox="0 0 41 40" version="1.1" xmlns="http://www.w3.org/2000/svg" xmlns:xlink="http://www.w3.org/1999/xlink">
    <title>tech_icon</title>
    <g id="fadoua.dev/landing" stroke="none" stroke-width="1" fill="none" fill-rule="evenodd">
        <g id="Project" transform="translate(-1112.000000, -1116.000000)">
            <g id="Project-Info" transform="translate(200.000000, 1113.000000)">
                <g id="tech_icon" transform="translate(912.952863, 3.000000)">
                    <ellipse id="background" fill="#2B3137" cx="19.9183709" cy="20" rx="19.9183709" ry="20"></ellipse>
                    <g id="icons8-maintenance" transform="translate(9.000000, 9.000000)" fill="#FFFFFF" fill-rule="nonzero">
                        <path d="M2.05204816,1.97921107e-16 C1.82562043,0.00754313216 1.61054695,0.10096307 1.45048563,0.261296438 L0.261296438,1.45048563 C-0.0346851065,1.7461673 -0.0853907878,2.20783061 0.139358108,2.56070546 L2.43063789,6.15730589 C3.07493286,7.18798865 4.47048622,7.37994638 5.41754638,6.67873741 L10.0639779,11.3251689 C9.26938784,12.6938936 9.39118697,14.4610953 10.5528928,15.6359797 L10.5517316,15.6359797 L15.2573901,20.4055108 C15.2581637,20.405899 15.2589378,20.406286 15.2597125,20.406672 C16.6511222,21.8083069 18.941293,21.8165366 20.3428001,20.4252531 C21.7433629,19.0349137 21.7535453,16.7444099 20.3637036,15.343328 L20.3613811,15.3410049 L15.6650126,10.5807644 C15.6646255,10.5807642 15.6642384,10.5807642 15.6638514,10.5807644 C14.492431,9.39666914 12.7074426,9.26399189 11.3263302,10.0651391 L6.67873741,5.41754638 C7.37891476,4.47107665 7.18820389,3.07682249 6.15962838,2.43179914 L2.56070546,0.139358108 C2.40907607,0.042695767 2.23177154,-0.005880797 2.05204816,1.97921107e-16 Z M15.1110639,-3.12087595e-16 C11.7706315,-3.12087595e-16 9.04226935,2.63894995 8.882918,5.94013914 L10.7851563,7.84121622 C10.8327239,7.68602703 10.8401468,7.51927119 10.7979306,7.35694686 C10.7004171,6.97819011 10.6516044,6.60356757 10.6516044,6.24324324 C10.6516044,3.784 12.6518212,1.78378378 15.1110639,1.78378378 C15.3387936,1.78378378 15.5645725,1.80155657 15.7869509,1.83604306 L13.8649702,3.75686211 C13.3589702,4.26226751 13.0810811,4.93394595 13.0810811,5.64864865 C13.0810811,6.36335135 13.3595648,7.03502978 13.8649702,7.54043519 C14.3703756,8.04584059 15.0420541,8.32432432 15.7567568,8.32432432 C16.4714595,8.32432432 17.1431379,8.04584059 17.6485433,7.54043519 L19.5321999,5.65793919 C19.5583621,5.85118243 19.5705234,6.04643243 19.5705234,6.24324324 C19.5705234,8.01454054 18.5314788,9.55593427 17.0307221,10.2730154 L18.3302365,11.5887878 C20.140777,10.4947337 21.3543071,8.50748741 21.3543071,6.242082 C21.3543071,5.32462254 21.1545239,4.43500676 20.7597125,3.59543919 C20.6360375,3.33262838 20.3924856,3.14485719 20.105891,3.09491124 C19.8210802,3.0449653 19.527137,3.13829822 19.3220018,3.34343335 L16.3873523,6.27808292 C16.0508117,6.61462346 15.4627018,6.61521805 15.1261612,6.27808292 C14.957891,6.11040724 14.8648649,5.88648649 14.8648649,5.64864865 C14.8648649,5.41081081 14.957891,5.186918 15.1261612,5.01805314 L18.0782306,2.06482261 C18.2821766,1.86087672 18.3754816,1.57155068 18.327914,1.28673986 C18.2803464,1.00252365 18.0976477,0.758405405 17.8389991,0.631756757 C16.9768369,0.212567568 16.0594423,-3.12087595e-16 15.1110639,-3.12087595e-16 Z M2.20534208,2.02882181 L5.20502519,3.93918919 C5.20734279,3.94036057 5.2096655,3.94152182 5.21199324,3.94267292 C5.39029135,4.05406843 5.41320584,4.25592438 5.26425276,4.40487746 L4.40487746,5.26425276 C4.25543384,5.41386049 4.05512681,5.39188546 3.94267292,5.21199324 C3.94152182,5.2096655 3.94036057,5.20734279 3.93918919,5.20502519 L2.02882181,2.20534208 L2.20534208,2.02882181 Z M6.66712438,9.60990265 L1.04402451,15.2771324 C0.367375859,15.9585378 -0.00356756757,16.8636315 -2.54957533e-05,17.8239017 C0.00356756757,18.7841726 0.381228011,19.6853271 1.06144423,20.3613811 C1.73987672,21.0350568 2.63816984,21.4054054 3.59427795,21.4054054 L3.60705222,21.4054054 C4.56732249,21.4018378 5.46904422,21.0248001 6.14569286,20.3428001 L9.84216616,16.6161315 L9.63429054,16.4070946 C9.26980405,16.0384459 8.98389681,15.6185878 8.76330222,15.1714527 L4.87985627,19.086254 C4.53915357,19.4293351 4.08465141,19.6198378 3.601246,19.6216216 C3.09465141,19.6132973 2.66223249,19.4368418 2.31915117,19.0955445 C1.97547549,18.7548418 1.78556757,18.3009343 1.78378378,17.8169343 C1.782,17.3335289 1.96915792,16.8779208 2.30986063,16.5348397 L7.92831481,10.8710937 L6.66712438,9.60990265 Z M13.1159208,11.2914723 C13.5779428,11.2935716 14.0397216,11.4751917 14.3956929,11.8349874 L19.0932221,16.5963891 C19.0939948,16.5971649 19.094769,16.5979393 19.0955445,16.5987122 C19.8070091,17.3146005 19.8028493,18.448056 19.086254,19.1594171 C18.3686259,19.8718104 17.2378158,19.8676304 16.5255491,19.1501265 L11.8210513,14.382918 C11.8210515,14.3825309 11.8210515,14.3821438 11.8210513,14.3817568 C11.1112374,13.6638902 11.1166981,12.5341099 11.8326649,11.8233744 C12.1918506,11.4668055 12.6538988,11.289407 13.1159208,11.2914723 Z" id="Shape"></path>
                    </g>
                </g>
            </g>
        </g>
    </g>
</svg>