<svg xmlns="http://www.w3.org/2000/svg" width="32" height="32" viewBox="0 0 32 32">
  <path id="apple_store" fill="#000000" fill-rule="evenodd" d="M16,32 C7.163444,32 0,24.836556 0,16 C0,7.163444 7.163444,0 16,0 C24.836556,0 32,7.163444 32,16 C32,24.836556 24.836556,32 16,32 Z M20.2629565,15.8497391 C20.2427826,13.6076522 22.0987826,12.5168696 22.1836522,12.466087 C21.1325217,10.9335652 19.5033043,10.7241739 18.9307826,10.7074783 C17.5624348,10.5634783 16.2351304,11.5262609 15.538087,11.5262609 C14.8271304,11.5262609 13.7537391,10.7213913 12.5968696,10.7450435 C11.1081739,10.768 9.71547826,11.629913 8.95165217,12.9683478 C7.37530435,15.6973913 8.55095652,19.7078261 10.0612174,21.9137391 C10.8166957,22.994087 11.6994783,24.2003478 12.8549565,24.157913 C13.9853913,24.1113043 14.4076522,23.4372174 15.7718261,23.4372174 C17.1234783,23.4372174 17.52,24.157913 18.6984348,24.1307826 C19.9116522,24.1113043 20.6754783,23.0455652 21.4045217,21.9554783 C22.2775652,20.7172174 22.6281739,19.4977391 22.642087,19.4351304 C22.6135652,19.4253913 20.285913,18.5370435 20.2629565,15.8497391 Z M18.0368696,9.25634783 C18.6448696,8.496 19.0608696,7.46156522 18.9453913,6.41182609 C18.0653913,6.45078261 16.9648696,7.02052174 16.3311304,7.76417391 C15.7704348,8.41947826 15.2695652,9.49356522 15.3989565,10.5036522 C16.3874783,10.5773913 17.4024348,10.0048696 18.0368696,9.25634783 Z"></path>
</svg>