<svg xmlns="http://www.w3.org/2000/svg" width="32" height="32" viewBox="0 0 32 32">
  <path id="play_store" fill="#000000" fill-rule="evenodd" d="M16,32 C7.163444,32 0,24.836556 0,16 C0,7.163444 7.163444,0 16,0 C24.836556,0 32,7.163444 32,16 C32,24.836556 24.836556,32 16,32 Z M10.5100324,25 L10.5100324,25 L18.1393871,16.044847 L10.4401699,7 C10.1702658,7.11166456 10,7.41878914 10,7.87417499 L10,24.1043519 C10,24.5960483 10.2010899,24.9137936 10.5100324,25 Z M11.5698849,24.6554854 L20.8373126,19.2143021 L18.5800988,16.5625841 L11.5698849,24.6554854 L11.5698849,24.6554854 Z M20.9011289,12.8031808 L11.7628529,7.43657928 L18.5934612,15.5118656 L20.9011289,12.8031808 L20.9011289,12.8031808 Z M21.5211535,13.1673004 L19.0365253,16.0356652 L21.4305862,18.8659735 L25.1010269,16.7109482 C25.7850316,16.3093487 25.778833,15.6676921 25.1010269,15.2696394 L21.5211535,13.1673004 Z"></path>
</svg>