<svg xmlns="http://www.w3.org/2000/svg" width="32" height="32" viewBox="0 0 32 32">
  <path id="website" fill="#000000" fill-rule="evenodd" d="M16,32 C7.163444,32 0,24.836556 0,16 C0,7.163444 7.163444,0 16,0 C24.836556,0 32,7.163444 32,16 C32,24.836556 24.836556,32 16,32 Z M12.4993046,24.4290815 C13.8307234,24.4290815 15.1123649,23.9102504 16.0711367,22.9519225 L18.3587334,20.6643257 C18.672042,20.3510172 18.672042,19.8430755 18.3582517,19.5302332 C18.0463722,19.2174057 17.5384305,19.2174057 17.2251219,19.5307143 L14.9375989,21.8182373 C13.5934425,23.1623937 11.4051667,23.1623937 10.0610104,21.8182373 C8.71684674,20.4740737 8.71684674,18.2857644 10.0610538,16.94119 L12.3485334,14.6537104 C12.6612661,14.3409777 12.6612661,13.8337785 12.3490145,13.5205806 C12.0349342,13.2074464 11.5285212,13.2074464 11.2154037,13.5196178 L8.92736999,15.8080662 C6.95762292,17.7778133 6.95762292,20.9816168 8.92736204,22.951812 C9.88569501,23.910145 11.1677171,24.4290815 12.4993046,24.4290815 Z M20.6639519,18.3587334 L22.9518615,16.0712392 C24.9216724,14.1014283 24.9216724,10.897181 22.9518904,8.92739887 C20.9816645,6.95762906 17.7778894,6.95762906 15.8077003,8.92736204 L13.5201404,11.2149219 C13.2074879,11.5285212 13.2074879,12.0349342 13.5196594,12.3480517 C13.83382,12.6612661 14.3410192,12.6612661 14.6537519,12.3485334 L16.941275,10.0610104 C18.2854314,8.71685398 20.4741225,8.71685398 21.8182789,10.0610104 C23.1624352,11.4051667 23.1624352,13.5934425 21.8182789,14.9375989 L19.5307558,17.2251219 C19.2174473,17.5384305 19.2174473,18.0463722 19.5312375,18.3592145 C19.682748,18.5107256 19.8864327,18.5935508 20.0973538,18.5935508 C20.3082749,18.5935508 20.5119597,18.5107256 20.6639519,18.3587334 Z M12.1478892,20.5327323 C12.3588103,20.5327323 12.5624951,20.4499072 12.7144873,20.297915 L19.8329242,13.1798935 C20.1455859,12.866285 20.1455859,12.3598719 19.8334145,12.0467545 C19.5192538,11.73354 19.0120546,11.73354 18.6993219,12.0462727 L11.5812912,19.1643035 C11.2679826,19.477612 11.2679826,19.9855537 11.5817729,20.298396 C11.7332834,20.4499072 11.9369681,20.5327323 12.1478892,20.5327323 Z"></path>
</svg>