<?xml version="1.0" encoding="UTF-8"?>
<svg width="400px" height="400px" viewBox="0 0 400 400" version="1.1" xmlns="http://www.w3.org/2000/svg" xmlns:xlink="http://www.w3.org/1999/xlink">
    <title>icon_sent</title>
    <g id="icon_sent" stroke="none" stroke-width="1" fill="none" fill-rule="evenodd">
        <path d="M200,0 C310.45695,0 400,89.54305 400,200 C400,310.45695 310.45695,400 200,400 C89.54305,400 0,310.45695 0,200 C0,89.54305 89.54305,0 200,0 Z M252.5,80 L222.5,80 C218.369143,80 215,83.3691425 215,87.5 L215,117.5 L143.75,117.5 C112.739259,117.5 87.5,142.739259 87.5,173.75 L87.5,253.188478 C83.149415,254.74121 80,258.872071 80,263.75 C80,269.94629 85.05371,275 91.25,275 L163.935549,275 L168.315429,283.789062 C170.234375,287.612304 174.101562,290 178.378906,290 L185,290 L185,316.25 C185,318.33008 186.669924,320 188.75,320 C190.83008,320 192.5,318.33008 192.5,316.25 L192.5,290 L215,290 L215,316.25 C215,318.33008 216.669924,320 218.75,320 C220.83008,320 222.5,318.33008 222.5,316.25 L222.5,290 L229.121094,290 C233.398438,290 237.250978,287.612304 239.184571,283.789062 L243.564455,275 L308.75,275 C314.94629,275 320,269.94629 320,263.75 C320,258.872071 316.850585,254.74121 312.5,253.188478 L312.5,173.75 C312.5,142.739259 287.260741,117.5 256.25,117.5 L237.5,117.5 L237.5,106.323241 L253.964844,103.027344 C257.451174,102.309571 260,99.2333975 260,95.67383 L260,87.5 C260,83.3691425 256.630861,80 252.5,80 Z M235.185549,275 L232.460937,280.434571 C231.831054,281.708986 230.541991,282.5 229.121094,282.5 L178.378906,282.5 C176.958009,282.5 175.668946,281.708986 175.039062,280.434571 L172.314455,275 L235.185549,275 Z M308.75,260 C310.815429,260 312.5,261.684571 312.5,263.75 C312.5,265.815429 310.815429,267.5 308.75,267.5 L91.25,267.5 C89.1845713,267.5 87.5,265.815429 87.5,263.75 C87.5,261.684571 89.1845713,260 91.25,260 L308.75,260 Z M143.75,125 C166.748049,125 186.04004,141.04004 191.137696,162.5 L121.25,162.5 C115.05371,162.5 110,167.55371 110,173.75 L110,248.75 C110,250.068361 110.263674,251.328125 110.688478,252.5 L95,252.5 L95,173.75 C95,146.870116 116.870116,125 143.75,125 Z M215,125 L215,171.347656 C212.568361,174.086915 211.25,177.573241 211.25,181.25 C211.25,185.263674 212.832031,189.013674 215.644531,191.855469 C218.48633,194.667969 222.23633,196.25 226.25,196.25 C230.263674,196.25 234.013674,194.667969 236.855469,191.855469 C239.667969,189.013674 241.25,185.263674 241.25,181.25 C241.25,177.573241 239.931643,174.086915 237.5,171.347656 L237.5,125 L256.25,125 C283.144531,125 305,146.855469 305,173.75 L305,177.5 L282.5,177.5 C280.419924,177.5 278.75,179.169924 278.75,181.25 C278.75,183.33008 280.419924,185 282.5,185 L305,185 L305,252.5 L200,252.5 L200,173.75 C200,152.905272 188.574219,134.711915 171.699219,125 L215,125 Z M117.5,182.421875 L167.143554,218.38379 C169.121094,219.819335 171.450196,220.52246 173.75,220.52246 C176.064455,220.52246 178.378906,219.819335 180.356446,218.38379 L192.5,209.594728 L192.5,252.5 L121.25,252.5 C119.184571,252.5 117.5,250.815429 117.5,248.75 L117.5,182.421875 Z M215,230 C212.919924,230 211.25,231.669924 211.25,233.75 L211.25,241.25 C211.25,243.33008 212.919924,245 215,245 C217.08008,245 218.75,243.33008 218.75,241.25 L218.75,233.75 C218.75,231.669924 217.08008,230 215,230 Z M233.75,230 C231.669924,230 230,231.669924 230,233.75 L230,241.25 C230,243.33008 231.669924,245 233.75,245 C235.83008,245 237.5,243.33008 237.5,241.25 L237.5,233.75 C237.5,231.669924 235.83008,230 233.75,230 Z M252.5,230 C250.419924,230 248.75,231.669924 248.75,233.75 L248.75,241.25 C248.75,243.33008 250.419924,245 252.5,245 C254.58008,245 256.25,243.33008 256.25,241.25 L256.25,233.75 C256.25,231.669924 254.58008,230 252.5,230 Z M271.25,230 C269.169924,230 267.5,231.669924 267.5,233.75 L267.5,241.25 C267.5,243.33008 269.169924,245 271.25,245 C273.33008,245 275,243.33008 275,241.25 L275,233.75 C275,231.669924 273.33008,230 271.25,230 Z M290,230 C287.919924,230 286.25,231.669924 286.25,233.75 L286.25,241.25 C286.25,243.33008 287.919924,245 290,245 C292.08008,245 293.75,243.33008 293.75,241.25 L293.75,233.75 C293.75,231.669924 292.08008,230 290,230 Z M192.309571,170 C192.412111,171.245116 192.5,172.475585 192.5,173.75 L192.5,200.336915 L175.947267,212.304688 C174.643554,213.271486 172.871094,213.271486 171.552736,212.304688 L117.60254,173.237304 C117.851562,171.420898 119.360352,170 121.25,170 L192.309571,170 Z M226.25,173.75 C227.597656,173.75 228.872071,174.086915 230,174.804688 C230.556643,175.097656 231.083986,175.507812 231.538085,175.961915 C232.958986,177.353518 233.75,179.257812 233.75,181.25 C233.75,183.242188 232.958986,185.146486 231.538085,186.538085 C230.146486,187.958986 228.198241,188.676759 226.25,188.676759 C224.301759,188.676759 222.353518,187.958986 220.961915,186.538085 C219.541018,185.146486 218.75,183.242188 218.75,181.25 C218.75,179.257812 219.541018,177.353518 220.961915,175.961915 C221.416018,175.507812 221.943361,175.097656 222.5,174.804688 C223.627929,174.086915 224.902344,173.75 226.25,173.75 Z M267.5,177.5 L252.5,177.5 C250.419924,177.5 248.75,179.169924 248.75,181.25 C248.75,183.33008 250.419924,185 252.5,185 L267.5,185 C269.58008,185 271.25,183.33008 271.25,181.25 C271.25,179.169924 269.58008,177.5 267.5,177.5 Z M252.5,87.5 L252.5,95.67383 L236.035156,98.984375 C232.54883,99.6875 230,102.763674 230,106.323241 L230,166.850585 C227.568361,166.25 224.931643,166.25 222.5,166.850585 L222.5,87.5 L252.5,87.5 Z" id="Combined-Shape" fill="#2B3137"></path>
    </g>
</svg>