<?xml version="1.0" encoding="UTF-8"?>
<svg width="400px" height="400px" viewBox="0 0 400 400" version="1.1" xmlns="http://www.w3.org/2000/svg" xmlns:xlink="http://www.w3.org/1999/xlink">
    <title>icon_404</title>
    <g id="icon_404" stroke="none" stroke-width="1" fill="none" fill-rule="evenodd">
        <path d="M200,0 C310.45695,0 400,89.54305 400,200 C400,310.45695 310.45695,400 200,400 C89.54305,400 0,310.45695 0,200 C0,89.54305 89.54305,0 200,0 Z M222.4375,70 L221.5625,70 C207.4825,70 196,81.4825 196,95.5625 L196,110 L195.523436,110 C179.203436,110 165.237812,119.84 159.757812,134 L143.398436,134 C123.878436,134 108,149.9625 108,169.5625 L108,182 L105.84375,182 C96.00375,182 88,190.163124 88,200.203124 L88,202 L86.4765624,202 C78.4765624,202 72,208.598752 72,216.718752 L72,219.281248 C72,227.401252 78.4765624,234 86.4765624,234 L88,234 L88,239.796876 C88,249.836876 96.00375,258 105.84375,258 L108,258 L108,274.4375 C108,294.0375 123.878436,310 143.398436,310 L256.601564,310 C276.121564,310 292,294.0375 292,274.4375 L292,258 L294.359376,258 C304.079376,258 312,249.836876 312,239.796876 L312,234 L313.960936,234 C321.960936,234 328.4375,227.401248 328.4375,219.281248 L328.4375,216.718752 C328.4375,208.598748 321.960936,202 313.960936,202 L312,202 L312,200.203124 C312,190.163124 304.079376,182 294.359376,182 L292,182 L292,169.5625 C292,149.9625 276.121564,134 256.601564,134 L240.679688,134 C235.239688,119.84 221.241876,110 204.921876,110 L204,110 L204,95.5625 C204,85.8825 211.8825,78 221.5625,78 L222.4375,78 C230.7575,78 237.763436,83.8415624 239.523436,91.6015624 C235.043436,93.9615624 232,98.64 232,104 C232,111.72 238.28,118 246,118 C253.72,118 260,111.72 260,104 C260,96.76 254.478436,90.7581248 247.398436,90.0781248 C244.878436,78.6381252 234.6375,70 222.4375,70 Z M256.601564,141.921876 C271.721564,141.921876 284,154.3225 284,169.5625 L284,274.4375 C284,289.6775 271.721564,302.078124 256.601564,302.078124 L143.398436,302.078124 C128.278436,302.078124 116,289.6775 116,274.4375 L116,169.5625 C116,154.3225 128.278436,141.921876 143.398436,141.921876 L256.601564,141.921876 Z M260,278 C257.8,278 256,279.760936 256,281.960936 L256,289.921876 C256,292.081876 257.8,293.882812 260,293.882812 C262.2,293.882812 264,292.081876 264,289.921876 L264,281.960936 C264,279.760936 262.2,278 260,278 Z M240,278 C237.8,278 236,279.760936 236,281.960936 L236,289.921876 C236,292.081876 237.8,293.882812 240,293.882812 C242.2,293.882812 244,292.081876 244,289.921876 L244,281.960936 C244,279.760936 242.2,278 240,278 Z M220,278 C217.8,278 216,279.760936 216,281.960936 L216,289.921876 C216,292.081876 217.8,293.882812 220,293.882812 C222.2,293.882812 224,292.081876 224,289.921876 L224,281.960936 C224,279.760936 222.2,278 220,278 Z M200,278 C197.8,278 196,279.760936 196,281.960936 L196,289.921876 C196,292.081876 197.8,293.882812 200,293.882812 C202.2,293.882812 204,292.081876 204,289.921876 L204,281.960936 C204,279.760936 202.2,278 200,278 Z M180,278 C177.8,278 176,279.760936 176,281.960936 L176,289.921876 C176,292.081876 177.8,293.882812 180,293.882812 C182.2,293.882812 184,292.081876 184,289.921876 L184,281.960936 C184,279.760936 182.2,278 180,278 Z M160,278 C157.8,278 156,279.760936 156,281.960936 L156,289.921876 C156,292.081876 157.8,293.882812 160,293.882812 C162.2,293.882812 164,292.081876 164,289.921876 L164,281.960936 C164,279.760936 162.2,278 160,278 Z M140,278 C137.8,278 136,279.760936 136,281.960936 L136,289.921876 C136,292.081876 137.8,293.882812 140,293.882812 C142.2,293.882812 144,292.081876 144,289.921876 L144,281.960936 C144,279.760936 142.2,278 140,278 Z M236.601564,223.156248 L219.718752,239.960936 L202.843752,223.156248 C202.063748,222.376248 201.043436,221.992188 200.023436,221.992188 C199.003436,221.992188 197.983124,222.376248 197.203124,223.156248 L180.320312,239.960936 L163.4375,223.156248 C161.8775,221.636248 159.356876,221.636252 157.796876,223.156248 L133.156248,247.679688 C131.636248,249.199688 131.598124,251.643124 133.078124,253.203124 L142.882812,263.843752 C143.602812,264.643752 144.638752,265.077188 145.718752,265.117188 C146.878748,265.077188 147.880624,264.720936 148.640624,263.960936 L160.601564,252.039064 L177.523436,268.843752 C179.083436,270.403752 181.596252,270.363748 183.156248,268.843752 L200.039064,252.039064 L216.882812,268.843752 C217.682812,269.603748 218.678752,270 219.718752,270 C220.758748,270 221.7625,269.603752 222.5625,268.843752 L239.398436,252.039064 L251.359376,263.960936 C252.119376,264.720936 253.162188,265.077188 254.242188,265.117188 C255.362188,265.077188 256.357188,264.643752 257.117188,263.843752 L266.921876,253.203124 C268.401876,251.643124 268.363748,249.199688 266.843752,247.679688 L242.242188,223.156248 C240.682188,221.596248 238.161564,221.596248 236.601564,223.156248 Z M239.398436,231.640624 L258.4375,250.601564 L254.078124,255.359376 L242.242188,243.5625 C240.682188,242.0025 238.161564,242.0025 236.601564,243.5625 L219.718752,260.359376 L202.843752,243.5625 C202.083752,242.8025 201.039064,242.398436 200.039064,242.398436 C198.999064,242.398436 198.003124,242.8025 197.203124,243.5625 L180.320312,260.359376 L163.4375,243.5625 C161.8775,242.0025 159.356876,242.0025 157.796876,243.5625 L145.921876,255.359376 L141.5625,250.601564 L160.601564,231.640624 L177.523436,248.4375 C179.083436,249.9975 181.596248,249.9975 183.156248,248.4375 L200.039064,231.640624 L216.882812,248.4375 C218.442812,249.9975 221.0025,249.9975 222.5625,248.4375 L239.398436,231.640624 Z M108,190.039064 L108,249.960936 L105.84375,249.960936 C100.40375,249.960936 96,245.396876 96,239.796876 L96,200.203124 C96,194.603124 100.40375,190.039064 105.84375,190.039064 L108,190.039064 Z M294.359376,190.039064 C299.679376,190.039064 304,194.603124 304,200.203124 L304,239.796876 C304,245.396876 299.679376,249.960936 294.359376,249.960936 L292,249.960936 L292,190.039064 L294.359376,190.039064 Z M313.960936,210 C317.520936,210 320.4375,212.998748 320.4375,216.718752 L320.4375,219.281248 C320.4375,223.001248 317.520936,226 313.960936,226 L312,226 L312,210 L313.960936,210 Z M88,210 L88,226 L86.4765624,226 C82.9165624,226 80,223.001252 80,219.281248 L80,216.718752 C80,212.998752 82.9165624,210 86.4765624,210 L88,210 Z M171.476564,156.117188 L164,163.601564 L156.523436,156.117188 C155.123436,154.697188 153.198436,153.992188 151.273436,153.992188 C149.348436,153.992188 147.42,154.697188 146,156.117188 L138.156248,163.960936 C135.276248,166.840936 135.276248,171.556564 138.156248,174.476564 L145.640624,181.960936 L138.156248,189.4375 C135.276248,192.3575 135.276248,197.080936 138.156248,199.960936 L146,207.843752 C147.48,209.283748 149.361252,210 151.281248,210 C153.161248,210 155.083436,209.283752 156.523436,207.843752 L164,200.320312 L171.476564,207.843752 C174.356564,210.723748 179.08,210.723748 182,207.843752 L189.843752,199.960936 C192.723748,197.080936 192.723748,192.3575 189.843752,189.4375 L182.359376,181.960936 L189.843752,174.476564 C192.723748,171.556564 192.723748,166.840936 189.843752,163.960936 L182,156.117188 C179.2,153.277188 174.276564,153.277188 171.476564,156.117188 Z M235.648436,158.101564 C222.132436,159.301564 211.9375,170.432 211.9375,184 C211.9375,198.336 223.616748,210 237.968752,210 C249.560748,210 259.863624,202.221936 263.015624,191.085936 C263.615624,188.961936 262.381812,186.748436 260.257812,186.148436 C258.133812,185.548436 255.9165,186.778248 255.3125,188.906248 C253.1325,196.610252 246.000752,201.992188 237.968752,201.992188 C228.024748,201.992188 219.9375,193.916188 219.9375,183.992188 C219.9375,174.756188 227.147564,166.886312 236.351564,166.070312 C238.551564,165.878312 240.180376,163.934376 239.984376,161.734376 C239.792376,159.534376 237.916436,157.953564 235.648436,158.101564 Z M176.718752,162.156248 L183.757812,169.203124 L171.039064,181.960936 L183.757812,194.718752 L176.718752,201.757812 L164,189 L151.281248,201.757812 L144.242188,194.718752 L156.960936,181.960936 L144.242188,169.203124 L151.281248,162.156248 L164,174.921876 L176.718752,162.156248 Z M251.617188,163.0625 C250.598188,163.159 249.618064,163.640188 248.914064,164.492188 C247.510064,166.196188 247.749124,168.717 249.453124,170.125 C251.369124,171.705 252.915064,173.624312 254.039064,175.820312 C254.747064,177.200312 256.145564,178 257.601564,178 C258.217564,178 258.834064,177.8545 259.414064,177.5625 C261.382064,176.5545 262.160248,174.143688 261.156248,172.179688 C259.532248,169.007688 257.306876,166.240936 254.546876,163.960936 C253.694876,163.258936 252.636188,162.966 251.617188,163.0625 Z M204.921876,118 C216.681876,118 226.922812,124.44 231.882812,134 L168.5625,134 C173.5225,124.44 183.763436,118 195.523436,118 L204.921876,118 Z M246,98 C246.36,98 246.718124,98.0371876 247.078124,98.1171876 C249.878124,98.5971876 252,101.04 252,104 C252,107.32 249.32,110 246,110 C242.68,110 240,107.32 240,104 C240,102.04 240.918436,100.282188 242.398436,99.2421876 L242.4375,99.2421876 C242.9375,98.8421876 243.501564,98.5303124 244.101564,98.3203124 C244.701564,98.1103124 245.34,98 246,98 Z" id="Combined-Shape" fill="#121E2E"></path>
        <g id="icons8-broken_robot" transform="translate(72.000000, 70.000000)"></g>
    </g>
</svg>